<mxfile host="app.diagrams.net" modified="2023-05-29T10:48:00.263Z" agent="Mozilla/5.0 (Windows NT 10.0; Win64; x64) AppleWebKit/537.36 (KHTML, like Gecko) Chrome/113.0.0.0 Safari/537.36 Edg/113.0.1774.50" etag="TDFCSBD2gViEpZUwFcas" version="21.3.2" type="device">
  <diagram name="Page-1" id="wuKPKg8n7fOWSqLQgW6j">
    <mxGraphModel dx="1400" dy="786" grid="0" gridSize="10" guides="1" tooltips="1" connect="1" arrows="1" fold="1" page="1" pageScale="1" pageWidth="827" pageHeight="1169" math="0" shadow="0">
      <root>
        <mxCell id="0" />
        <mxCell id="1" parent="0" />
        <mxCell id="KYZTzPVHc1yOyD898JZF-97" style="edgeStyle=orthogonalEdgeStyle;rounded=0;orthogonalLoop=1;jettySize=auto;html=1;" edge="1" parent="1" source="KYZTzPVHc1yOyD898JZF-1" target="KYZTzPVHc1yOyD898JZF-3">
          <mxGeometry relative="1" as="geometry" />
        </mxCell>
        <mxCell id="KYZTzPVHc1yOyD898JZF-1" value="" style="rounded=0;whiteSpace=wrap;html=1;" vertex="1" parent="1">
          <mxGeometry x="320" y="60" width="120" height="60" as="geometry" />
        </mxCell>
        <mxCell id="KYZTzPVHc1yOyD898JZF-101" style="edgeStyle=orthogonalEdgeStyle;rounded=0;orthogonalLoop=1;jettySize=auto;html=1;" edge="1" parent="1" source="KYZTzPVHc1yOyD898JZF-2" target="KYZTzPVHc1yOyD898JZF-8">
          <mxGeometry relative="1" as="geometry" />
        </mxCell>
        <mxCell id="KYZTzPVHc1yOyD898JZF-2" value="OpenClose" style="rounded=0;whiteSpace=wrap;html=1;" vertex="1" parent="1">
          <mxGeometry x="162" y="338" width="120" height="60" as="geometry" />
        </mxCell>
        <mxCell id="KYZTzPVHc1yOyD898JZF-98" style="edgeStyle=orthogonalEdgeStyle;rounded=0;orthogonalLoop=1;jettySize=auto;html=1;" edge="1" parent="1" source="KYZTzPVHc1yOyD898JZF-3" target="KYZTzPVHc1yOyD898JZF-56">
          <mxGeometry relative="1" as="geometry" />
        </mxCell>
        <mxCell id="KYZTzPVHc1yOyD898JZF-125" style="edgeStyle=orthogonalEdgeStyle;rounded=0;orthogonalLoop=1;jettySize=auto;html=1;entryX=0.5;entryY=0;entryDx=0;entryDy=0;" edge="1" parent="1" source="KYZTzPVHc1yOyD898JZF-3" target="KYZTzPVHc1yOyD898JZF-1">
          <mxGeometry relative="1" as="geometry">
            <Array as="points">
              <mxPoint x="683" y="180" />
              <mxPoint x="683" y="40" />
              <mxPoint x="380" y="40" />
            </Array>
          </mxGeometry>
        </mxCell>
        <mxCell id="KYZTzPVHc1yOyD898JZF-3" value="Dval" style="rhombus;whiteSpace=wrap;html=1;" vertex="1" parent="1">
          <mxGeometry x="350" y="150" width="60" height="60" as="geometry" />
        </mxCell>
        <mxCell id="KYZTzPVHc1yOyD898JZF-102" style="edgeStyle=orthogonalEdgeStyle;rounded=0;orthogonalLoop=1;jettySize=auto;html=1;exitX=0;exitY=0.5;exitDx=0;exitDy=0;entryX=0.5;entryY=0;entryDx=0;entryDy=0;" edge="1" parent="1" source="KYZTzPVHc1yOyD898JZF-8" target="KYZTzPVHc1yOyD898JZF-2">
          <mxGeometry relative="1" as="geometry">
            <Array as="points">
              <mxPoint x="90" y="464" />
              <mxPoint x="90" y="318" />
              <mxPoint x="222" y="318" />
            </Array>
          </mxGeometry>
        </mxCell>
        <mxCell id="KYZTzPVHc1yOyD898JZF-103" style="edgeStyle=orthogonalEdgeStyle;rounded=0;orthogonalLoop=1;jettySize=auto;html=1;" edge="1" parent="1" source="KYZTzPVHc1yOyD898JZF-8" target="KYZTzPVHc1yOyD898JZF-12">
          <mxGeometry relative="1" as="geometry" />
        </mxCell>
        <mxCell id="KYZTzPVHc1yOyD898JZF-8" value="Sopen" style="rhombus;whiteSpace=wrap;html=1;" vertex="1" parent="1">
          <mxGeometry x="192" y="434" width="60" height="60" as="geometry" />
        </mxCell>
        <mxCell id="KYZTzPVHc1yOyD898JZF-111" style="edgeStyle=orthogonalEdgeStyle;rounded=0;orthogonalLoop=1;jettySize=auto;html=1;" edge="1" parent="1" source="KYZTzPVHc1yOyD898JZF-10" target="KYZTzPVHc1yOyD898JZF-35">
          <mxGeometry relative="1" as="geometry" />
        </mxCell>
        <mxCell id="KYZTzPVHc1yOyD898JZF-10" value="" style="rounded=0;whiteSpace=wrap;html=1;" vertex="1" parent="1">
          <mxGeometry x="473" y="338" width="120" height="60" as="geometry" />
        </mxCell>
        <mxCell id="KYZTzPVHc1yOyD898JZF-104" style="edgeStyle=orthogonalEdgeStyle;rounded=0;orthogonalLoop=1;jettySize=auto;html=1;" edge="1" parent="1" source="KYZTzPVHc1yOyD898JZF-12" target="KYZTzPVHc1yOyD898JZF-55">
          <mxGeometry relative="1" as="geometry">
            <Array as="points">
              <mxPoint x="222" y="617" />
              <mxPoint x="380" y="617" />
            </Array>
          </mxGeometry>
        </mxCell>
        <mxCell id="KYZTzPVHc1yOyD898JZF-109" style="edgeStyle=orthogonalEdgeStyle;rounded=0;orthogonalLoop=1;jettySize=auto;html=1;entryX=0.5;entryY=0;entryDx=0;entryDy=0;" edge="1" parent="1" source="KYZTzPVHc1yOyD898JZF-12" target="KYZTzPVHc1yOyD898JZF-10">
          <mxGeometry relative="1" as="geometry">
            <Array as="points">
              <mxPoint x="433" y="569" />
              <mxPoint x="433" y="315" />
              <mxPoint x="533" y="315" />
            </Array>
          </mxGeometry>
        </mxCell>
        <mxCell id="KYZTzPVHc1yOyD898JZF-12" value="OC" style="rhombus;whiteSpace=wrap;html=1;" vertex="1" parent="1">
          <mxGeometry x="192" y="539" width="60" height="60" as="geometry" />
        </mxCell>
        <mxCell id="KYZTzPVHc1yOyD898JZF-22" value="ZEN" style="text;html=1;strokeColor=none;fillColor=none;align=center;verticalAlign=middle;whiteSpace=wrap;rounded=0;" vertex="1" parent="1">
          <mxGeometry x="450" y="80" width="110" height="20" as="geometry" />
        </mxCell>
        <mxCell id="KYZTzPVHc1yOyD898JZF-23" value="CLOSE_DOOR" style="text;html=1;strokeColor=none;fillColor=none;align=center;verticalAlign=middle;whiteSpace=wrap;rounded=0;" vertex="1" parent="1">
          <mxGeometry x="539" y="315" width="100" height="30" as="geometry" />
        </mxCell>
        <mxCell id="KYZTzPVHc1yOyD898JZF-28" value="F" style="text;html=1;strokeColor=none;fillColor=none;align=center;verticalAlign=middle;whiteSpace=wrap;rounded=0;" vertex="1" parent="1">
          <mxGeometry x="734" y="135" width="60" height="30" as="geometry" />
        </mxCell>
        <mxCell id="KYZTzPVHc1yOyD898JZF-32" value="T" style="text;html=1;strokeColor=none;fillColor=none;align=center;verticalAlign=middle;whiteSpace=wrap;rounded=0;" vertex="1" parent="1">
          <mxGeometry x="734" y="86" width="60" height="30" as="geometry" />
        </mxCell>
        <mxCell id="KYZTzPVHc1yOyD898JZF-110" style="edgeStyle=orthogonalEdgeStyle;rounded=0;orthogonalLoop=1;jettySize=auto;html=1;entryX=0.5;entryY=0;entryDx=0;entryDy=0;" edge="1" parent="1" source="KYZTzPVHc1yOyD898JZF-35" target="KYZTzPVHc1yOyD898JZF-2">
          <mxGeometry relative="1" as="geometry">
            <Array as="points">
              <mxPoint x="321" y="464" />
              <mxPoint x="321" y="318" />
              <mxPoint x="222" y="318" />
            </Array>
          </mxGeometry>
        </mxCell>
        <mxCell id="KYZTzPVHc1yOyD898JZF-112" style="edgeStyle=orthogonalEdgeStyle;rounded=0;orthogonalLoop=1;jettySize=auto;html=1;" edge="1" parent="1" source="KYZTzPVHc1yOyD898JZF-35" target="KYZTzPVHc1yOyD898JZF-74">
          <mxGeometry relative="1" as="geometry" />
        </mxCell>
        <mxCell id="KYZTzPVHc1yOyD898JZF-35" value="Psensor" style="rhombus;whiteSpace=wrap;html=1;" vertex="1" parent="1">
          <mxGeometry x="503" y="434" width="60" height="60" as="geometry" />
        </mxCell>
        <mxCell id="KYZTzPVHc1yOyD898JZF-105" style="edgeStyle=orthogonalEdgeStyle;rounded=0;orthogonalLoop=1;jettySize=auto;html=1;" edge="1" parent="1" source="KYZTzPVHc1yOyD898JZF-55" target="KYZTzPVHc1yOyD898JZF-61">
          <mxGeometry relative="1" as="geometry" />
        </mxCell>
        <mxCell id="KYZTzPVHc1yOyD898JZF-55" value="done" style="rounded=0;whiteSpace=wrap;html=1;" vertex="1" parent="1">
          <mxGeometry x="320" y="647" width="120" height="60" as="geometry" />
        </mxCell>
        <mxCell id="KYZTzPVHc1yOyD898JZF-99" style="edgeStyle=orthogonalEdgeStyle;rounded=0;orthogonalLoop=1;jettySize=auto;html=1;" edge="1" parent="1" source="KYZTzPVHc1yOyD898JZF-56" target="KYZTzPVHc1yOyD898JZF-2">
          <mxGeometry relative="1" as="geometry" />
        </mxCell>
        <mxCell id="KYZTzPVHc1yOyD898JZF-100" style="edgeStyle=orthogonalEdgeStyle;rounded=0;orthogonalLoop=1;jettySize=auto;html=1;" edge="1" parent="1" source="KYZTzPVHc1yOyD898JZF-56" target="KYZTzPVHc1yOyD898JZF-10">
          <mxGeometry relative="1" as="geometry" />
        </mxCell>
        <mxCell id="KYZTzPVHc1yOyD898JZF-56" value="OC" style="rhombus;whiteSpace=wrap;html=1;" vertex="1" parent="1">
          <mxGeometry x="350" y="251" width="60" height="60" as="geometry" />
        </mxCell>
        <mxCell id="KYZTzPVHc1yOyD898JZF-106" style="edgeStyle=orthogonalEdgeStyle;rounded=0;orthogonalLoop=1;jettySize=auto;html=1;entryX=0.5;entryY=0;entryDx=0;entryDy=0;" edge="1" parent="1" source="KYZTzPVHc1yOyD898JZF-61" target="KYZTzPVHc1yOyD898JZF-1">
          <mxGeometry relative="1" as="geometry">
            <Array as="points">
              <mxPoint x="41" y="778" />
              <mxPoint x="41" y="40" />
              <mxPoint x="380" y="40" />
            </Array>
          </mxGeometry>
        </mxCell>
        <mxCell id="KYZTzPVHc1yOyD898JZF-107" style="edgeStyle=orthogonalEdgeStyle;rounded=0;orthogonalLoop=1;jettySize=auto;html=1;entryX=0.5;entryY=0;entryDx=0;entryDy=0;" edge="1" parent="1" source="KYZTzPVHc1yOyD898JZF-61" target="KYZTzPVHc1yOyD898JZF-55">
          <mxGeometry relative="1" as="geometry">
            <Array as="points">
              <mxPoint x="460" y="778" />
              <mxPoint x="460" y="617" />
              <mxPoint x="380" y="617" />
            </Array>
          </mxGeometry>
        </mxCell>
        <mxCell id="KYZTzPVHc1yOyD898JZF-61" value="Dval" style="rhombus;whiteSpace=wrap;html=1;" vertex="1" parent="1">
          <mxGeometry x="350" y="748" width="60" height="60" as="geometry" />
        </mxCell>
        <mxCell id="KYZTzPVHc1yOyD898JZF-108" style="edgeStyle=orthogonalEdgeStyle;rounded=0;orthogonalLoop=1;jettySize=auto;html=1;" edge="1" parent="1" source="KYZTzPVHc1yOyD898JZF-74" target="KYZTzPVHc1yOyD898JZF-55">
          <mxGeometry relative="1" as="geometry">
            <Array as="points">
              <mxPoint x="533" y="617" />
              <mxPoint x="380" y="617" />
            </Array>
          </mxGeometry>
        </mxCell>
        <mxCell id="KYZTzPVHc1yOyD898JZF-113" style="edgeStyle=orthogonalEdgeStyle;rounded=0;orthogonalLoop=1;jettySize=auto;html=1;entryX=0.5;entryY=0;entryDx=0;entryDy=0;" edge="1" parent="1" source="KYZTzPVHc1yOyD898JZF-74" target="KYZTzPVHc1yOyD898JZF-10">
          <mxGeometry relative="1" as="geometry">
            <Array as="points">
              <mxPoint x="683" y="569" />
              <mxPoint x="683" y="315" />
              <mxPoint x="533" y="315" />
            </Array>
          </mxGeometry>
        </mxCell>
        <mxCell id="KYZTzPVHc1yOyD898JZF-74" value="Sclose" style="rhombus;whiteSpace=wrap;html=1;" vertex="1" parent="1">
          <mxGeometry x="503" y="539" width="60" height="60" as="geometry" />
        </mxCell>
        <mxCell id="KYZTzPVHc1yOyD898JZF-90" value="OPEN_DOOR" style="text;html=1;strokeColor=none;fillColor=none;align=center;verticalAlign=middle;whiteSpace=wrap;rounded=0;" vertex="1" parent="1">
          <mxGeometry x="240" y="315" width="60" height="30" as="geometry" />
        </mxCell>
        <mxCell id="KYZTzPVHc1yOyD898JZF-93" value="FINISHED" style="text;html=1;strokeColor=none;fillColor=none;align=center;verticalAlign=middle;whiteSpace=wrap;rounded=0;" vertex="1" parent="1">
          <mxGeometry x="483" y="662" width="60" height="30" as="geometry" />
        </mxCell>
        <mxCell id="KYZTzPVHc1yOyD898JZF-95" value="OnOff" style="ellipse;whiteSpace=wrap;html=1;" vertex="1" parent="1">
          <mxGeometry x="60" y="355.5" width="59" height="25" as="geometry" />
        </mxCell>
        <mxCell id="KYZTzPVHc1yOyD898JZF-96" value="OnOff" style="ellipse;whiteSpace=wrap;html=1;" vertex="1" parent="1">
          <mxGeometry x="654" y="355.5" width="59" height="25" as="geometry" />
        </mxCell>
        <mxCell id="KYZTzPVHc1yOyD898JZF-114" value="T" style="text;html=1;strokeColor=none;fillColor=none;align=center;verticalAlign=middle;whiteSpace=wrap;rounded=0;" vertex="1" parent="1">
          <mxGeometry x="360" y="202" width="60" height="30" as="geometry" />
        </mxCell>
        <mxCell id="KYZTzPVHc1yOyD898JZF-115" value="T" style="text;html=1;strokeColor=none;fillColor=none;align=center;verticalAlign=middle;whiteSpace=wrap;rounded=0;" vertex="1" parent="1">
          <mxGeometry x="318" y="251" width="60" height="30" as="geometry" />
        </mxCell>
        <mxCell id="KYZTzPVHc1yOyD898JZF-116" value="T" style="text;html=1;strokeColor=none;fillColor=none;align=center;verticalAlign=middle;whiteSpace=wrap;rounded=0;" vertex="1" parent="1">
          <mxGeometry x="205" y="494" width="60" height="30" as="geometry" />
        </mxCell>
        <mxCell id="KYZTzPVHc1yOyD898JZF-117" value="T" style="text;html=1;strokeColor=none;fillColor=none;align=center;verticalAlign=middle;whiteSpace=wrap;rounded=0;" vertex="1" parent="1">
          <mxGeometry x="205" y="591" width="60" height="30" as="geometry" />
        </mxCell>
        <mxCell id="KYZTzPVHc1yOyD898JZF-118" value="T" style="text;html=1;strokeColor=none;fillColor=none;align=center;verticalAlign=middle;whiteSpace=wrap;rounded=0;" vertex="1" parent="1">
          <mxGeometry x="473" y="434" width="60" height="30" as="geometry" />
        </mxCell>
        <mxCell id="KYZTzPVHc1yOyD898JZF-119" value="T" style="text;html=1;strokeColor=none;fillColor=none;align=center;verticalAlign=middle;whiteSpace=wrap;rounded=0;" vertex="1" parent="1">
          <mxGeometry x="518" y="591" width="60" height="30" as="geometry" />
        </mxCell>
        <mxCell id="KYZTzPVHc1yOyD898JZF-120" value="F" style="text;html=1;strokeColor=none;fillColor=none;align=center;verticalAlign=middle;whiteSpace=wrap;rounded=0;" vertex="1" parent="1">
          <mxGeometry x="388" y="251" width="60" height="30" as="geometry" />
        </mxCell>
        <mxCell id="KYZTzPVHc1yOyD898JZF-121" value="F" style="text;html=1;strokeColor=none;fillColor=none;align=center;verticalAlign=middle;whiteSpace=wrap;rounded=0;" vertex="1" parent="1">
          <mxGeometry x="518" y="486" width="60" height="30" as="geometry" />
        </mxCell>
        <mxCell id="KYZTzPVHc1yOyD898JZF-122" value="F" style="text;html=1;strokeColor=none;fillColor=none;align=center;verticalAlign=middle;whiteSpace=wrap;rounded=0;" vertex="1" parent="1">
          <mxGeometry x="533" y="539" width="60" height="30" as="geometry" />
        </mxCell>
        <mxCell id="KYZTzPVHc1yOyD898JZF-123" value="F" style="text;html=1;strokeColor=none;fillColor=none;align=center;verticalAlign=middle;whiteSpace=wrap;rounded=0;" vertex="1" parent="1">
          <mxGeometry x="227" y="539" width="60" height="30" as="geometry" />
        </mxCell>
        <mxCell id="KYZTzPVHc1yOyD898JZF-124" value="F" style="text;html=1;strokeColor=none;fillColor=none;align=center;verticalAlign=middle;whiteSpace=wrap;rounded=0;" vertex="1" parent="1">
          <mxGeometry x="312" y="748" width="60" height="30" as="geometry" />
        </mxCell>
        <mxCell id="KYZTzPVHc1yOyD898JZF-126" value="F" style="text;html=1;strokeColor=none;fillColor=none;align=center;verticalAlign=middle;whiteSpace=wrap;rounded=0;" vertex="1" parent="1">
          <mxGeometry x="388" y="150" width="60" height="30" as="geometry" />
        </mxCell>
        <mxCell id="KYZTzPVHc1yOyD898JZF-127" value="F" style="text;html=1;strokeColor=none;fillColor=none;align=center;verticalAlign=middle;whiteSpace=wrap;rounded=0;" vertex="1" parent="1">
          <mxGeometry x="162" y="434" width="60" height="30" as="geometry" />
        </mxCell>
        <mxCell id="KYZTzPVHc1yOyD898JZF-128" value="T" style="text;html=1;strokeColor=none;fillColor=none;align=center;verticalAlign=middle;whiteSpace=wrap;rounded=0;" vertex="1" parent="1">
          <mxGeometry x="388" y="748" width="60" height="30" as="geometry" />
        </mxCell>
      </root>
    </mxGraphModel>
  </diagram>
</mxfile>
